:FULLY-SPECIFIED
:FORCE-ALL-JOINTS-BE-3DOF
:DEGREES
2242
root -0.651956 13.7451 -16.9283 -167.77 -26.3316 168.117
lfemur 13.6045 -0.478435 -14.2152
ltibia 31.9469 -0 0
lfoot -24.0857 37.6609 -0.00595617
ltoes -43.9102 0 0
rfemur -72.799 -23.9745 8.93626
rtibia 74.0298 -0 0
rfoot -7.40853 15.2594 0.191695
rtoes 3.51116 -0 0
lowerback 9.18451 2.39728 -13.8177
upperback -2.98379 1.08621 -2.35635
thorax -8.72505 1.11277 5.01998
lowerneck 1.91502 -12.6633 -13.1236
upperneck 3.4642 -17.5758 11.0444
head 2.7983 -8.84485 4.67389
lclavicle 3.8294e-14 -1.90088e-15 0
lhumerus -78.2421 -14.8135 102.803
lradius 106.372 -0 0
lwrist 67.311 0 0
lhand -8.36936 65.4306 -0.402932
lfingers 7.12502 -0 0
lthumb 12.5241 122.965 2.14325
rclavicle 3.8294e-14 -1.90088e-15 0
rhumerus 55.5013 -12.3708 -59.8119
rradius 5.05517 -0 0
rwrist 45.5148 0 0
rhand -28.8657 -43.9519 -1.17606
rfingers 7.12502 -0 0
rthumb 0.477916 -80.1456 -5.6847
2243
root -0.663687 13.7496 -16.8951 -167.65 -26.2713 168.087
lfemur 13.6307 -0.5053 -14.3108
ltibia 31.6975 -0 0
lfoot -24.0058 37.6645 -0.00671969
ltoes -44.11 0 0
rfemur -73.0006 -24.0038 8.98491
rtibia 74.2417 -0 0
rfoot -7.52193 15.259 0.186375
rtoes 3.60478 -0 0
lowerback 9.08441 2.38833 -13.85
upperback -3.00713 1.08215 -2.36847
thorax -8.69296 1.11041 5.02667
lowerneck 1.86326 -12.6578 -13.0775
upperneck 3.48413 -17.5643 11.0311
head 2.80807 -8.8371 4.66226
lclavicle 3.8294e-14 -1.90088e-15 0
lhumerus -77.9248 -14.954 102.863
lradius 106.192 -0 0
lwrist 67.1531 0 0
lhand -8.55102 65.042 -0.379041
lfingers 7.12502 -0 0
lthumb 12.5277 118.746 1.90033
rclavicle 3.8294e-14 -1.90088e-15 0
rhumerus 55.2833 -12.303 -59.7345
rradius 5.50955 -0 0
rwrist 45.0418 0 0
rhand -28.5578 -43.9003 -1.12866
rfingers 7.12502 -0 0
rthumb 0.662332 -79.8664 -5.46158
2244
root -0.675439 13.7538 -16.8627 -167.544 -26.2084 168.064
lfemur 13.6423 -0.527829 -14.4087
ltibia 31.4659 -0 0
lfoot -23.9275 37.6602 -0.00737148
ltoes -44.3017 0 0
rfemur -73.1868 -24.0223 9.03123
rtibia 74.4412 -0 0
rfoot -7.62197 15.2524 0.1798
rtoes 3.6975 -0 0
lowerback 8.98829 2.37801 -13.8799
upperback -3.02841 1.07643 -2.37799
thorax -8.66049 1.10711 5.03522
lowerneck 1.80752 -12.6487 -13.0284
upperneck 3.51116 -17.5482 11.0139
head 2.81972 -8.82693 4.64926
lclavicle 3.8294e-14 -1.90088e-15 0
lhumerus -77.5614 -15.1116 102.929
lradius 105.989 -0 0
lwrist 66.9597 0 0
lhand -8.74247 64.642 -0.353798
lfingers 7.12502 -0 0
lthumb 12.5606 114.741 1.66444
rclavicle 3.8294e-14 -1.90088e-15 0
rhumerus 55.0323 -12.2213 -59.6588
rradius 6.02542 -0 0
rwrist 44.5156 0 0
rhand -28.2018 -43.8428 -1.07493
rfingers 7.12502 -0 0
rthumb 0.878295 -79.5483 -5.20755
2245
root -0.687131 13.7577 -16.8314 -167.452 -26.1432 168.049
lfemur 13.6388 -0.54591 -14.5089
ltibia 31.2529 -0 0
lfoot -23.851 37.6481 -0.00789157
ltoes -44.4845 0 0
rfemur -73.3567 -24.0297 9.07499
rtibia 74.6276 -0 0
rfoot -7.70811 15.2396 0.171947
rtoes 3.78906 -0 0
lowerback 8.8965 2.3663 -13.9072
upperback -3.04753 1.06903 -2.38483
thorax -8.62773 1.10287 5.04563
lowerneck 1.74788 -12.6358 -12.9762
upperneck 3.54537 -17.5272 10.9929
head 2.83325 -8.81432 4.63489
lclavicle 3.8294e-14 -1.90088e-15 0
lhumerus -77.1517 -15.2863 103.001
lradius 105.764 -0 0
lwrist 66.7305 0 0
lhand -8.94341 64.2313 -0.327369
lfingers 7.12502 -0 0
lthumb 12.6206 110.963 1.43859
rclavicle 3.8294e-14 -1.90088e-15 0
rhumerus 54.7483 -12.1256 -59.5853
rradius 6.6027 -0 0
rwrist 43.9367 0 0
rhand -27.7978 -43.7793 -1.01499
rfingers 7.12502 -0 0
rthumb 1.12637 -79.191 -4.92308
2246
root -0.698681 13.7611 -16.8021 -167.374 -26.0756 168.041
lfemur 13.62 -0.559432 -14.6109
ltibia 31.0597 -0 0
lfoot -23.7765 37.6279 -0.00826036
ltoes -44.6578 0 0
rfemur -73.5094 -24.0258 9.11594
rtibia 74.8 -0 0
rfoot -7.7798 15.2204 0.162798
rtoes 3.87918 -0 0
lowerback 8.80938 2.35322 -13.9319
upperback -3.0644 1.05993 -2.3889
thorax -8.59476 1.09767 5.05793
lowerneck 1.68439 -12.619 -12.9212
upperneck 3.58682 -17.5014 10.9679
head 2.84866 -8.79925 4.61916
lclavicle 3.8294e-14 -1.90088e-15 0
lhumerus -76.6956 -15.4782 103.079
lradius 105.517 -0 0
lwrist 66.4654 0 0
lhand -9.15358 63.8109 -0.299918
lfingers 7.12502 -0 0
lthumb 12.7054 107.428 1.2253
rclavicle 3.8294e-14 -1.90088e-15 0
rhumerus 54.4313 -12.0157 -59.5144
rradius 7.24134 -0 0
rwrist 43.3052 0 0
rhand -27.3455 -43.7097 -0.949
rfingers 7.12502 -0 0
rthumb 1.40716 -78.7943 -4.60872
2247
root -0.710009 13.764 -16.7753 -167.312 -26.006 168.041
lfemur 13.5854 -0.568288 -14.7148
ltibia 30.8872 -0 0
lfoot -23.7042 37.5995 -0.00845884
ltoes -44.8209 0 0
rfemur -73.6442 -24.0102 9.15386
rtibia 74.9578 -0 0
rfoot -7.83649 15.1947 0.152339
rtoes 3.96761 -0 0
lowerback 8.72726 2.33879 -13.9538
upperback -3.07891 1.04912 -2.39013
thorax -8.56164 1.0915 5.07212
lowerneck 1.61713 -12.5984 -12.8633
upperneck 3.6356 -17.4707 10.939
head 2.86598 -8.78168 4.60207
lclavicle 3.8294e-14 -1.90088e-15 0
lhumerus -76.1933 -15.6875 103.163
lradius 105.248 -0 0
lwrist 66.164 0 0
lhand -9.37269 63.3814 -0.271601
lfingers 7.12502 -0 0
lthumb 12.8123 104.151 1.02659
rclavicle 3.8294e-14 -1.90088e-15 0
rhumerus 54.0814 -11.8917 -59.4466
rradius 7.94126 -0 0
rwrist 42.6214 0 0
rhand -26.845 -43.6339 -0.877109
rfingers 7.12502 -0 0
rthumb 1.72137 -78.3577 -4.26508
2248
root -0.721033 13.766 -16.7517 -167.266 -25.9343 168.049
lfemur 13.5348 -0.572373 -14.8201
ltibia 30.7363 -0 0
lfoot -23.6344 37.5628 -0.00846878
ltoes -44.9731 0 0
rfemur -73.76 -23.9828 9.18853
rtibia 75.1001 -0 0
rfoot -7.87764 15.1625 0.140562
rtoes 4.05408 -0 0
lowerback 8.65049 2.323 -13.9727
upperback -3.09097 1.03658 -2.38843
thorax -8.52847 1.08434 5.08822
lowerneck 1.54618 -12.5739 -12.8027
upperneck 3.69175 -17.435 10.906
head 2.8852 -8.7616 4.58365
lclavicle 3.8294e-14 -1.90088e-15 0
lhumerus -75.6444 -15.9143 103.251
lradius 104.958 -0 0
lwrist 65.8262 0 0
lhand -9.60045 62.9438 -0.242569
lfingers 7.12502 -0 0
lthumb 12.9387 101.146 0.843975
rclavicle 3.8294e-14 -1.90088e-15 0
rhumerus 53.6985 -11.7533 -59.3823
rradius 8.70242 -0 0
rwrist 41.8856 0 0
rhand -26.2961 -43.5517 -0.799497
rfingers 7.12502 -0 0
rthumb 2.06973 -77.8806 -3.89288
2249
root -0.731671 13.7672 -16.7318 -167.236 -25.8607 168.065
lfemur 13.4678 -0.571583 -14.9268
ltibia 30.6081 -0 0
lfoot -23.5674 37.5175 -0.00827294
ltoes -45.1137 0 0
rfemur -73.8562 -23.9432 9.21975
rtibia 75.226 -0 0
rfoot -7.90268 15.1235 0.127465
rtoes 4.13832 -0 0
lowerback 8.5794 2.30586 -13.9886
upperback -3.10047 1.02229 -2.38372
thorax -8.49533 1.07619 5.10626
lowerneck 1.47161 -12.5453 -12.7394
upperneck 3.75536 -17.3943 10.8691
head 2.90632 -8.73898 4.56388
lclavicle 3.8294e-14 -1.90088e-15 0
lhumerus -75.049 -16.1586 103.344
lradius 104.645 -0 0
lwrist 65.4517 0 0
lhand -9.8366 62.4987 -0.212966
lfingers 7.12502 -0 0
lthumb 13.0817 98.429 0.678484
rclavicle 3.8294e-14 -1.90088e-15 0
rhumerus 53.2828 -11.6005 -59.3221
rradius 9.52474 -0 0
rwrist 41.098 0 0
rhand -25.6986 -43.463 -0.716359
rfingers 7.12502 -0 0
rthumb 2.45304 -77.3627 -3.49289
2250
root -0.741842 13.7674 -16.7165 -167.222 -25.7854 168.09
lfemur 13.3839 -0.565818 -15.0346
ltibia 30.5036 -0 0
lfoot -23.5033 37.4635 -0.00785527
ltoes -45.242 0 0
rfemur -73.9318 -23.8913 9.24732
rtibia 75.3349 -0 0
rfoot -7.91108 15.0777 0.113049
rtoes 4.22007 -0 0
lowerback 8.51433 2.28739 -14.0012
upperback -3.10732 1.00622 -2.37594
thorax -8.46228 1.06703 5.12623
lowerneck 1.39349 -12.5127 -12.6735
upperneck 3.82649 -17.3485 10.8282
head 2.92937 -8.71379 4.54279
lclavicle 3.8294e-14 -1.90088e-15 0
lhumerus -74.4069 -16.4206 103.44
lradius 104.311 -0 0
lwrist 65.0402 0 0
lhand -10.0808 62.0471 -0.182927
lfingers 7.12502 -0 0
lthumb 13.2389 96.0145 0.530686
rclavicle 3.8294e-14 -1.90088e-15 0
rhumerus 52.8341 -11.4332 -59.2664
rradius 10.4082 -0 0
rwrist 40.2589 0 0
rhand -25.0526 -43.3676 -0.627908
rfingers 7.12502 -0 0
rthumb 2.87216 -76.8033 -3.06598
2251
root -0.751465 13.7665 -16.7062 -167.226 -25.7084 168.123
lfemur 13.2829 -0.554979 -15.1433
ltibia 30.4237 -0 0
lfoot -23.4425 37.4008 -0.00720115
ltoes -45.3574 0 0
rfemur -73.9861 -23.8268 9.27107
rtibia 75.426 -0 0
rfoot -7.90228 15.025 0.0973272
rtoes 4.29907 -0 0
lowerback 8.45561 2.2676 -14.0106
upperback -3.11142 0.988365 -2.36498
thorax -8.42941 1.05685 5.14817
lowerneck 1.3119 -12.4759 -12.6051
upperneck 3.90519 -17.2975 10.7833
head 2.95433 -8.68601 4.52038
lclavicle 3.8294e-14 -1.90088e-15 0
lhumerus -73.718 -16.7004 103.539
lradius 103.954 -0 0
lwrist 64.5915 0 0
lhand -10.3329 61.5896 -0.152581
lfingers 7.12502 -0 0
lthumb 13.4075 93.9178 0.400732
rclavicle 3.8294e-14 -1.90088e-15 0
rhumerus 52.3527 -11.2514 -59.2159
rradius 11.3526 -0 0
rwrist 39.3687 0 0
rhand -24.3579 -43.2654 -0.534376
rfingers 7.12502 -0 0
rthumb 3.32801 -76.2017 -2.61311
2252
root -0.760457 13.7643 -16.7016 -167.248 -25.6298 168.165
lfemur 13.1645 -0.538968 -15.2528
ltibia 30.3694 -0 0
lfoot -23.3851 37.329 -0.00629761
ltoes -45.4592 0 0
rfemur -74.0183 -23.7495 9.29086
rtibia 75.4984 -0 0
rfoot -7.87572 14.9652 0.0803151
rtoes 4.37505 -0 0
lowerback 8.40359 2.24648 -14.0165
upperback -3.11267 0.968697 -2.35079
thorax -8.39679 1.04563 5.17208
lowerneck 1.22691 -12.435 -12.5343
upperneck 3.99153 -17.2412 10.7344
head 2.98123 -8.65561 4.49666
lclavicle 3.8294e-14 -1.90088e-15 0
lhumerus -72.9821 -16.9982 103.641
lradius 103.577 -0 0
lwrist 64.1054 0 0
lhand -10.5924 61.1272 -0.122044
lfingers 7.12502 -0 0
lthumb 13.5852 92.1539 0.288392
rclavicle 3.8294e-14 -1.90088e-15 0
rhumerus 51.8384 -11.0549 -59.171
rradius 12.358 -0 0
rwrist 38.4275 0 0
rhand -23.6144 -43.1562 -0.436013
rfingers 7.12502 -0 0
rthumb 3.82157 -75.5573 -2.13534
2253
root -0.768738 13.7607 -16.7034 -167.289 -25.5498 168.216
lfemur 13.0281 -0.51769 -15.3628
ltibia 30.3418 -0 0
lfoot -23.3314 37.2481 -0.00513351
ltoes -45.5467 0 0
rfemur -74.0274 -23.659 9.30653
rtibia 75.5513 -0 0
rfoot -7.83085 14.8982 0.0620385
rtoes 4.44775 -0 0
lowerback 8.3586 2.22404 -14.0188
upperback -3.11098 0.947197 -2.33327
thorax -8.36452 1.03337 5.19798
lowerneck 1.13861 -12.3898 -12.4611
upperneck 4.08556 -17.1796 10.6814
head 3.01006 -8.62256 4.47163
lclavicle 3.8294e-14 -1.90088e-15 0
lhumerus -72.1992 -17.3139 103.744
lradius 103.178 -0 0
lwrist 63.5817 0 0
lhand -10.8592 60.6607 -0.0914264
lfingers 7.12502 -0 0
lthumb 13.7699 90.7379 0.193103
rclavicle 3.8294e-14 -1.90088e-15 0
rhumerus 51.2913 -10.8438 -59.1325
rradius 13.4244 -0 0
rwrist 37.4356 0 0
rhand -22.822 -43.0397 -0.333091
rfingers 7.12502 -0 0
rthumb 4.35389 -74.8693 -1.63381
